<mxfile host="Electron" agent="Mozilla/5.0 (Windows NT 10.0; Win64; x64) AppleWebKit/537.36 (KHTML, like Gecko) draw.io/24.7.5 Chrome/126.0.6478.183 Electron/31.3.0 Safari/537.36" version="24.7.5">
  <diagram name="第 1 页" id="GyaJyf8mcjmdu9Av58s_">
    <mxGraphModel dx="1179" dy="2050" grid="1" gridSize="10" guides="1" tooltips="1" connect="1" arrows="1" fold="1" page="1" pageScale="1" pageWidth="827" pageHeight="1169" math="0" shadow="0">
      <root>
        <mxCell id="0" />
        <mxCell id="1" parent="0" />
        <mxCell id="pZlWNLY9USR9-3rheVkw-8" style="edgeStyle=orthogonalEdgeStyle;rounded=0;orthogonalLoop=1;jettySize=auto;html=1;exitX=0.5;exitY=1;exitDx=0;exitDy=0;entryX=0.5;entryY=0;entryDx=0;entryDy=0;" edge="1" parent="1" source="pZlWNLY9USR9-3rheVkw-1" target="pZlWNLY9USR9-3rheVkw-7">
          <mxGeometry relative="1" as="geometry" />
        </mxCell>
        <mxCell id="pZlWNLY9USR9-3rheVkw-16" style="edgeStyle=orthogonalEdgeStyle;rounded=0;orthogonalLoop=1;jettySize=auto;html=1;exitX=0.25;exitY=1;exitDx=0;exitDy=0;entryX=0.25;entryY=0;entryDx=0;entryDy=0;" edge="1" parent="1" source="pZlWNLY9USR9-3rheVkw-1" target="pZlWNLY9USR9-3rheVkw-2">
          <mxGeometry relative="1" as="geometry">
            <Array as="points">
              <mxPoint x="190" y="150" />
              <mxPoint x="140" y="150" />
              <mxPoint x="140" y="440" />
              <mxPoint x="190" y="440" />
            </Array>
          </mxGeometry>
        </mxCell>
        <mxCell id="pZlWNLY9USR9-3rheVkw-1" value="send pwd" style="rounded=0;whiteSpace=wrap;html=1;" vertex="1" parent="1">
          <mxGeometry x="160" y="80" width="120" height="60" as="geometry" />
        </mxCell>
        <mxCell id="pZlWNLY9USR9-3rheVkw-17" style="edgeStyle=orthogonalEdgeStyle;rounded=0;orthogonalLoop=1;jettySize=auto;html=1;exitX=0.5;exitY=1;exitDx=0;exitDy=0;entryX=0.5;entryY=0;entryDx=0;entryDy=0;" edge="1" parent="1" source="pZlWNLY9USR9-3rheVkw-2" target="pZlWNLY9USR9-3rheVkw-3">
          <mxGeometry relative="1" as="geometry" />
        </mxCell>
        <mxCell id="pZlWNLY9USR9-3rheVkw-2" value="HMAC-SHA256" style="rounded=0;whiteSpace=wrap;html=1;" vertex="1" parent="1">
          <mxGeometry x="160" y="470" width="120" height="60" as="geometry" />
        </mxCell>
        <mxCell id="pZlWNLY9USR9-3rheVkw-21" style="edgeStyle=orthogonalEdgeStyle;rounded=0;orthogonalLoop=1;jettySize=auto;html=1;exitX=0.5;exitY=1;exitDx=0;exitDy=0;entryX=0.5;entryY=0;entryDx=0;entryDy=0;" edge="1" parent="1" source="pZlWNLY9USR9-3rheVkw-3" target="pZlWNLY9USR9-3rheVkw-20">
          <mxGeometry relative="1" as="geometry" />
        </mxCell>
        <mxCell id="pZlWNLY9USR9-3rheVkw-3" value="Compare" style="rounded=0;whiteSpace=wrap;html=1;" vertex="1" parent="1">
          <mxGeometry x="640" y="700" width="120" height="60" as="geometry" />
        </mxCell>
        <mxCell id="pZlWNLY9USR9-3rheVkw-19" style="edgeStyle=orthogonalEdgeStyle;rounded=0;orthogonalLoop=1;jettySize=auto;html=1;exitX=0.5;exitY=1;exitDx=0;exitDy=0;entryX=0.75;entryY=0;entryDx=0;entryDy=0;" edge="1" parent="1" source="pZlWNLY9USR9-3rheVkw-4" target="pZlWNLY9USR9-3rheVkw-3">
          <mxGeometry relative="1" as="geometry" />
        </mxCell>
        <mxCell id="pZlWNLY9USR9-3rheVkw-4" value="HMAC-SHA256" style="rounded=0;whiteSpace=wrap;html=1;" vertex="1" parent="1">
          <mxGeometry x="680" y="440" width="120" height="60" as="geometry" />
        </mxCell>
        <mxCell id="pZlWNLY9USR9-3rheVkw-11" style="edgeStyle=orthogonalEdgeStyle;rounded=0;orthogonalLoop=1;jettySize=auto;html=1;exitX=1;exitY=0.5;exitDx=0;exitDy=0;entryX=0;entryY=0.5;entryDx=0;entryDy=0;" edge="1" parent="1" source="pZlWNLY9USR9-3rheVkw-5" target="pZlWNLY9USR9-3rheVkw-10">
          <mxGeometry relative="1" as="geometry" />
        </mxCell>
        <mxCell id="pZlWNLY9USR9-3rheVkw-5" value="compare" style="rounded=0;whiteSpace=wrap;html=1;" vertex="1" parent="1">
          <mxGeometry x="450" y="210" width="120" height="60" as="geometry" />
        </mxCell>
        <mxCell id="pZlWNLY9USR9-3rheVkw-13" style="edgeStyle=orthogonalEdgeStyle;rounded=0;orthogonalLoop=1;jettySize=auto;html=1;exitX=0.5;exitY=1;exitDx=0;exitDy=0;entryX=0.5;entryY=0;entryDx=0;entryDy=0;" edge="1" parent="1" source="pZlWNLY9USR9-3rheVkw-6" target="pZlWNLY9USR9-3rheVkw-2">
          <mxGeometry relative="1" as="geometry" />
        </mxCell>
        <mxCell id="pZlWNLY9USR9-3rheVkw-6" value="generate chanllenge" style="rounded=0;whiteSpace=wrap;html=1;" vertex="1" parent="1">
          <mxGeometry x="450" y="350" width="120" height="60" as="geometry" />
        </mxCell>
        <mxCell id="pZlWNLY9USR9-3rheVkw-9" style="edgeStyle=orthogonalEdgeStyle;rounded=0;orthogonalLoop=1;jettySize=auto;html=1;exitX=1;exitY=0.5;exitDx=0;exitDy=0;entryX=0;entryY=0.5;entryDx=0;entryDy=0;" edge="1" parent="1" source="pZlWNLY9USR9-3rheVkw-7" target="pZlWNLY9USR9-3rheVkw-5">
          <mxGeometry relative="1" as="geometry" />
        </mxCell>
        <mxCell id="pZlWNLY9USR9-3rheVkw-7" value="encrypt" style="rounded=0;whiteSpace=wrap;html=1;" vertex="1" parent="1">
          <mxGeometry x="160" y="160" width="120" height="60" as="geometry" />
        </mxCell>
        <mxCell id="pZlWNLY9USR9-3rheVkw-12" style="edgeStyle=orthogonalEdgeStyle;rounded=0;orthogonalLoop=1;jettySize=auto;html=1;exitX=0;exitY=0.75;exitDx=0;exitDy=0;entryX=0.5;entryY=0;entryDx=0;entryDy=0;" edge="1" parent="1" source="pZlWNLY9USR9-3rheVkw-10" target="pZlWNLY9USR9-3rheVkw-6">
          <mxGeometry relative="1" as="geometry" />
        </mxCell>
        <mxCell id="pZlWNLY9USR9-3rheVkw-18" style="edgeStyle=orthogonalEdgeStyle;rounded=0;orthogonalLoop=1;jettySize=auto;html=1;exitX=0.5;exitY=1;exitDx=0;exitDy=0;entryX=0.5;entryY=0;entryDx=0;entryDy=0;" edge="1" parent="1" source="pZlWNLY9USR9-3rheVkw-10" target="pZlWNLY9USR9-3rheVkw-4">
          <mxGeometry relative="1" as="geometry">
            <mxPoint x="740" y="560" as="targetPoint" />
          </mxGeometry>
        </mxCell>
        <mxCell id="pZlWNLY9USR9-3rheVkw-10" value="db" style="rounded=0;whiteSpace=wrap;html=1;" vertex="1" parent="1">
          <mxGeometry x="680" y="270" width="120" height="60" as="geometry" />
        </mxCell>
        <mxCell id="pZlWNLY9USR9-3rheVkw-15" style="edgeStyle=orthogonalEdgeStyle;rounded=0;orthogonalLoop=1;jettySize=auto;html=1;exitX=1;exitY=0.5;exitDx=0;exitDy=0;entryX=0;entryY=0.25;entryDx=0;entryDy=0;" edge="1" parent="1" source="pZlWNLY9USR9-3rheVkw-14" target="pZlWNLY9USR9-3rheVkw-5">
          <mxGeometry relative="1" as="geometry">
            <Array as="points">
              <mxPoint x="380" y="30" />
              <mxPoint x="380" y="225" />
            </Array>
          </mxGeometry>
        </mxCell>
        <mxCell id="pZlWNLY9USR9-3rheVkw-14" value="send username" style="rounded=0;whiteSpace=wrap;html=1;" vertex="1" parent="1">
          <mxGeometry x="160" width="120" height="60" as="geometry" />
        </mxCell>
        <mxCell id="pZlWNLY9USR9-3rheVkw-20" value="log in!" style="rounded=0;whiteSpace=wrap;html=1;" vertex="1" parent="1">
          <mxGeometry x="640" y="850" width="120" height="60" as="geometry" />
        </mxCell>
        <mxCell id="pZlWNLY9USR9-3rheVkw-22" value="Server" style="text;html=1;align=center;verticalAlign=middle;resizable=0;points=[];autosize=1;strokeColor=none;fillColor=none;" vertex="1" parent="1">
          <mxGeometry x="480" y="88" width="60" height="30" as="geometry" />
        </mxCell>
        <mxCell id="pZlWNLY9USR9-3rheVkw-23" value="DB" style="text;html=1;align=center;verticalAlign=middle;resizable=0;points=[];autosize=1;strokeColor=none;fillColor=none;" vertex="1" parent="1">
          <mxGeometry x="710" y="88" width="40" height="30" as="geometry" />
        </mxCell>
        <mxCell id="pZlWNLY9USR9-3rheVkw-24" value="Client" style="text;html=1;align=center;verticalAlign=middle;resizable=0;points=[];autosize=1;strokeColor=none;fillColor=none;" vertex="1" parent="1">
          <mxGeometry x="185" y="-72" width="50" height="30" as="geometry" />
        </mxCell>
      </root>
    </mxGraphModel>
  </diagram>
</mxfile>
